# xmcd
#
# Track frame offsets: 
#        150
#        16707
#        34150
#        50652
#        66997
#        86950
#        106902
#        123917
#        139730
#
# Disc length: 2086 seconds
#
# Revision: 0
# Processed by: cddbd v1.5.2PL0 Copyright (c) Steve Scherf et al.
# Submitted via: ExactAudioCopy v0.99pb4
#
DISCID=78082409
DTITLE=Grand Puba - A Little of This
DYEAR=1995
DGENRE=Hip-Hop
TTITLE0=A Little of This (album version)
TTITLE1=A Little of This (remix)
TTITLE2=A Little of This (album instrumental)
TTITLE3=A Little of This (acappelly)
TTITLE4=I Like It (I Wanna Be Where You Are) (album version)
TTITLE5=I Like It (I Wanna Be Where You Are) (album version instrument
TTITLE5=al)
TTITLE6=A Little of This (remix instrumental)
TTITLE7=I Like It (I Wanna Be Where You Are) (acappelly)
TTITLE8=A Little of This (Stud Doogie remix)
EXTD=
EXTT0=
EXTT1=
EXTT2=
EXTT3=
EXTT4=
EXTT5=
EXTT6=
EXTT7=
EXTT8=
PLAYORDER=
